<svg width="360" height="408" viewBox="0 0 360 408" fill="none"
  xmlns="http://www.w3.org/2000/svg">
  <g clip-path="url(#clip0_1596_7974)">
    <path d="M72.3207 143.844C73.1307 142.514 72.7086 140.78 71.3778 139.971C70.0471 139.161 68.3116 139.583 67.5015 140.913L51.437 167.28C50.6269 168.61 51.0491 170.344 52.3798 171.153C53.7106 171.962 55.4461 171.541 56.2562 170.211L72.3207 143.844Z" fill="#F9F9F9"/>
    <path d="M129.544 90.1595C130.354 88.8298 129.932 87.0959 128.601 86.2865C127.271 85.4772 125.535 85.8989 124.725 87.2285L108.661 113.596C107.851 114.926 108.273 116.66 109.603 117.469C110.934 118.278 112.67 117.857 113.48 116.527L129.544 90.1595Z" fill="#F9F9F9"/>
    <path d="M149.157 36.7437C149.967 35.4141 149.545 33.6801 148.214 32.8707C146.883 32.0614 145.148 32.4831 144.337 33.8127L128.273 60.1802C127.463 61.5098 127.885 63.2438 129.216 64.0532C130.547 64.8625 132.282 64.4408 133.092 63.1112L149.157 36.7437Z" fill="#F9F9F9"/>
    <path d="M206.918 178.202C207.728 176.872 207.306 175.138 205.975 174.329C204.644 173.519 202.909 173.941 202.099 175.271L186.034 201.638C185.224 202.968 185.646 204.702 186.977 205.511C188.308 206.32 190.043 205.899 190.853 204.569L206.918 178.202Z" fill="#F9F9F9"/>
    <path d="M67.7533 216.586C68.5633 215.256 68.1412 213.522 66.8105 212.713C65.4797 211.903 63.7442 212.325 62.9341 213.655L46.8696 240.022C46.0596 241.352 46.4817 243.086 47.8124 243.895C49.1432 244.705 50.8787 244.283 51.6888 242.953L67.7533 216.586Z" fill="#F9F9F9"/>
    <path d="M214.171 124.249C214.981 122.919 214.559 121.185 213.228 120.376C211.898 119.567 210.162 119.988 209.352 121.318L193.288 147.685C192.478 149.015 192.9 150.749 194.23 151.558C195.561 152.368 197.297 151.946 198.107 150.616L214.171 124.249Z" fill="#F9F9F9"/>
    <path d="M240.768 286.375C241.578 285.046 241.156 283.312 239.826 282.502C238.495 281.693 236.759 282.115 235.949 283.444L219.885 309.812C219.075 311.141 219.497 312.875 220.828 313.685C222.158 314.494 223.894 314.072 224.704 312.743L240.768 286.375Z" fill="#F9F9F9"/>
    <path d="M358.439 5.33841C359.249 4.0088 358.827 2.27483 357.496 1.46547C356.165 0.656114 354.43 1.07786 353.62 2.40747L337.555 28.7749C336.745 30.1045 337.167 31.8385 338.498 32.6479C339.829 33.4572 341.564 33.0355 342.374 31.7059L358.439 5.33841Z" fill="#F9F9F9"/>
    <path d="M332.11 209.07C332.92 207.74 332.498 206.006 331.167 205.197C329.837 204.388 328.101 204.809 327.291 206.139L311.227 232.507C310.416 233.836 310.839 235.57 312.169 236.379C313.5 237.189 315.236 236.767 316.046 235.437L332.11 209.07Z" fill="#F9F9F9"/>
    <path d="M112.888 146.796C113.698 145.467 113.276 143.733 111.945 142.923C110.614 142.114 108.878 142.536 108.068 143.865L92.0039 170.233C91.1938 171.562 91.6159 173.296 92.9467 174.106C94.2775 174.915 96.013 174.493 96.8231 173.164L112.888 146.796Z" fill="#F9F9F9"/>
    <path d="M353.603 99.5542C354.413 98.2246 353.991 96.4906 352.66 95.6812C351.329 94.8719 349.594 95.2936 348.784 96.6232L332.719 122.991C331.909 124.32 332.331 126.054 333.662 126.864C334.993 127.673 336.728 127.251 337.538 125.922L353.603 99.5542Z" fill="#F9F9F9"/>
    <path d="M296.648 45.0647C297.458 43.7351 297.036 42.0011 295.705 41.1918C294.374 40.3824 292.639 40.8042 291.829 42.1338L275.764 68.5013C274.954 69.8309 275.376 71.5649 276.707 72.3742C278.038 73.1836 279.773 72.7618 280.583 71.4322L296.648 45.0647Z" fill="#F9F9F9"/>
    <path d="M285.901 28.1542C286.711 26.8246 286.289 25.0906 284.958 24.2813C283.628 23.4719 281.892 23.8937 281.082 25.2233L265.018 51.5907C264.207 52.9204 264.63 54.6543 265.96 55.4637C267.291 56.273 269.027 55.8513 269.837 54.5217L285.901 28.1542Z" fill="#F9F9F9"/>
    <path d="M231.097 257.386C231.907 256.056 231.485 254.322 230.154 253.513C228.823 252.703 227.087 253.125 226.277 254.455L210.213 280.822C209.403 282.152 209.825 283.886 211.156 284.695C212.486 285.505 214.222 285.083 215.032 283.753L231.097 257.386Z" fill="#F9F9F9"/>
    <path d="M213.903 297.381C214.713 296.051 214.291 294.317 212.96 293.508C211.629 292.698 209.894 293.12 209.084 294.45L193.019 320.817C192.209 322.147 192.631 323.881 193.962 324.69C195.293 325.499 197.028 325.078 197.838 323.748L213.903 297.381Z" fill="#F9F9F9"/>
    <path d="M207.455 276.712C208.265 275.382 207.843 273.649 206.512 272.839C205.181 272.03 203.446 272.452 202.636 273.781L186.571 300.149C185.761 301.478 186.183 303.212 187.514 304.022C188.845 304.831 190.58 304.409 191.39 303.08L207.455 276.712Z" fill="#F9F9F9"/>
    <path d="M346.349 336.033C347.159 334.704 346.737 332.97 345.406 332.16C344.075 331.351 342.34 331.773 341.53 333.102L325.465 359.47C324.655 360.799 325.077 362.533 326.408 363.343C327.739 364.152 329.474 363.73 330.284 362.401L346.349 336.033Z" fill="#F9F9F9"/>
    <path d="M276.767 337.912C277.577 336.582 277.155 334.849 275.824 334.039C274.493 333.23 272.758 333.652 271.948 334.981L255.883 361.349C255.073 362.678 255.495 364.412 256.826 365.222C258.157 366.031 259.892 365.609 260.702 364.28L276.767 337.912Z" fill="#F9F9F9"/>
    <path d="M358.439 374.954C359.249 373.625 358.827 371.891 357.496 371.081C356.165 370.272 354.43 370.694 353.62 372.023L337.555 398.391C336.745 399.72 337.167 401.454 338.498 402.264C339.829 403.073 341.564 402.651 342.374 401.322L358.439 374.954Z" fill="#F9F9F9"/>
    <path d="M223.575 379.249C224.385 377.919 223.963 376.185 222.632 375.376C221.301 374.567 219.565 374.988 218.755 376.318L202.691 402.685C201.881 404.015 202.303 405.749 203.634 406.558C204.965 407.368 206.7 406.946 207.51 405.616L223.575 379.249Z" fill="#F9F9F9"/>
    <path d="M288.857 229.202C289.667 227.872 289.245 226.138 287.914 225.329C286.583 224.519 284.848 224.941 284.038 226.271L267.973 252.638C267.163 253.968 267.585 255.702 268.916 256.511C270.247 257.32 271.982 256.899 272.792 255.569L288.857 229.202Z" fill="#F9F9F9"/>
    <path d="M296.648 265.438C297.458 264.109 297.036 262.375 295.705 261.565C294.374 260.756 292.639 261.178 291.829 262.507L275.764 288.875C274.954 290.205 275.376 291.938 276.707 292.748C278.038 293.557 279.773 293.135 280.583 291.806L296.648 265.438Z" fill="#F9F9F9"/>
    <path d="M266.828 95.7963C267.638 94.4667 267.216 92.7327 265.885 91.9234C264.554 91.114 262.819 91.5357 262.009 92.8654L245.944 119.233C245.134 120.562 245.556 122.296 246.887 123.106C248.218 123.915 249.953 123.493 250.763 122.164L266.828 95.7963Z" fill="#F9F9F9"/>
    <path d="M288.857 79.1542C289.667 77.8246 289.245 76.0906 287.914 75.2813C286.583 74.4719 284.848 74.8937 284.038 76.2233L267.973 102.591C267.163 103.92 267.585 105.654 268.916 106.464C270.247 107.273 271.982 106.851 272.792 105.522L288.857 79.1542Z" fill="#F9F9F9"/>
    <path d="M199.664 345.159C200.474 343.83 200.052 342.096 198.721 341.287C197.39 340.477 195.655 340.899 194.845 342.229L178.78 368.596C177.97 369.926 178.392 371.66 179.723 372.469C181.054 373.278 182.789 372.857 183.599 371.527L199.664 345.159Z" fill="#F9F9F9"/>
    <path d="M79.3055 372.002C80.1156 370.672 79.6935 368.938 78.3627 368.129C77.0319 367.319 75.2964 367.741 74.4864 369.071L58.4219 395.438C57.6118 396.768 58.0339 398.502 59.3647 399.311C60.6955 400.12 62.431 399.699 63.241 398.369L79.3055 372.002Z" fill="#F9F9F9"/>
    <path d="M202.082 58.7542C202.892 57.4246 202.47 55.6906 201.139 54.8812C199.808 54.0719 198.073 54.4936 197.263 55.8232L181.198 82.1907C180.388 83.5203 180.81 85.2543 182.141 86.0637C183.472 86.873 185.207 86.4513 186.017 85.1217L202.082 58.7542Z" fill="#F9F9F9"/>
    <path d="M183.007 269.196C183.817 267.867 183.395 266.133 182.064 265.323C180.734 264.514 178.998 264.936 178.188 266.265L162.124 292.633C161.313 293.962 161.736 295.696 163.066 296.506C164.397 297.315 166.133 296.893 166.943 295.564L183.007 269.196Z" fill="#F9F9F9"/>
    <path d="M259.843 177.933C260.653 176.604 260.231 174.87 258.9 174.06C257.57 173.251 255.834 173.673 255.024 175.002L238.959 201.37C238.149 202.699 238.571 204.433 239.902 205.243C241.233 206.052 242.969 205.63 243.779 204.301L259.843 177.933Z" fill="#F9F9F9"/>
    <path d="M327.274 152.433C328.084 151.104 327.662 149.37 326.331 148.56C325.001 147.751 323.265 148.173 322.455 149.502L306.391 175.87C305.581 177.199 306.003 178.933 307.333 179.743C308.664 180.552 310.4 180.13 311.21 178.801L327.274 152.433Z" fill="#F9F9F9"/>
    <path d="M148.619 212.023C149.429 210.693 149.007 208.959 147.676 208.15C146.345 207.34 144.61 207.762 143.8 209.092L127.735 235.459C126.925 236.789 127.347 238.523 128.678 239.332C130.009 240.141 131.744 239.72 132.555 238.39L148.619 212.023Z" fill="#F9F9F9"/>
    <path d="M358.439 269.196C359.249 267.867 358.827 266.133 357.496 265.323C356.165 264.514 354.43 264.936 353.62 266.265L337.555 292.633C336.745 293.962 337.167 295.696 338.498 296.506C339.829 297.315 341.564 296.893 342.374 295.564L358.439 269.196Z" fill="#F9F9F9"/>
    <path d="M289.125 5.60684C289.935 4.27723 289.513 2.54326 288.183 1.7339C286.852 0.924547 285.116 1.34629 284.306 2.6759L268.242 29.0434C267.432 30.373 267.854 32.1069 269.185 32.9163C270.515 33.7257 272.251 33.3039 273.061 31.9743L289.125 5.60684Z" fill="#F9F9F9"/>
    <path d="M149.157 349.991C149.967 348.661 149.545 346.927 148.214 346.118C146.883 345.309 145.148 345.73 144.337 347.06L128.273 373.428C127.463 374.757 127.885 376.491 129.216 377.301C130.547 378.11 132.282 377.688 133.092 376.359L149.157 349.991Z" fill="#F9F9F9"/>
    <path d="M250.709 202.628C251.519 201.298 251.097 199.564 249.766 198.755C248.435 197.946 246.7 198.367 245.89 199.697L229.825 226.064C229.015 227.394 229.437 229.128 230.768 229.937C232.099 230.747 233.834 230.325 234.644 228.995L250.709 202.628Z" fill="#F9F9F9"/>
    <path d="M320.289 82.3753C321.099 81.0457 320.677 79.3117 319.347 78.5023C318.016 77.693 316.28 78.1147 315.47 79.4443L299.406 105.812C298.596 107.141 299.018 108.875 300.349 109.685C301.679 110.494 303.415 110.072 304.225 108.743L320.289 82.3753Z" fill="#F9F9F9"/>
    <path d="M36.0521 379.249C36.8622 377.919 36.4401 376.185 35.1093 375.376C33.7785 374.567 32.043 374.988 31.2329 376.318L15.1684 402.685C14.3584 404.015 14.7805 405.749 16.1113 406.558C17.442 407.368 19.1775 406.946 19.9876 405.616L36.0521 379.249Z" fill="#F9F9F9"/>
    <path d="M301.215 363.949C302.025 362.619 301.603 360.885 300.272 360.076C298.941 359.267 297.206 359.688 296.396 361.018L280.331 387.385C279.521 388.715 279.943 390.449 281.274 391.258C282.605 392.068 284.34 391.646 285.15 390.316L301.215 363.949Z" fill="#F9F9F9"/>
    <path d="M62.3802 266.244C63.1903 264.914 62.7682 263.18 61.4374 262.371C60.1066 261.561 58.3711 261.983 57.5611 263.313L41.4966 289.68C40.6865 291.01 41.1086 292.744 42.4394 293.553C43.7702 294.363 45.5057 293.941 46.3157 292.611L62.3802 266.244Z" fill="#F9F9F9"/>
    <path d="M129.544 226.249C130.354 224.919 129.932 223.185 128.601 222.376C127.271 221.567 125.535 221.988 124.725 223.318L108.661 249.685C107.851 251.015 108.273 252.749 109.603 253.558C110.934 254.368 112.67 253.946 113.48 252.616L129.544 226.249Z" fill="#F9F9F9"/>
    <path d="M43.3055 209.338C44.1156 208.009 43.6935 206.275 42.3627 205.465C41.0319 204.656 39.2964 205.078 38.4864 206.407L22.4219 232.775C21.6118 234.105 22.0339 235.839 23.3647 236.648C24.6955 237.457 26.431 237.036 27.241 235.706L43.3055 209.338Z" fill="#F9F9F9"/>
    <path d="M130.082 178.202C130.892 176.872 130.47 175.138 129.139 174.329C127.808 173.519 126.073 173.941 125.263 175.271L109.198 201.638C108.388 202.968 108.81 204.702 110.141 205.511C111.472 206.32 113.207 205.899 114.017 204.569L130.082 178.202Z" fill="#F9F9F9"/>
    <path d="M178.44 76.2016C179.25 74.872 178.828 73.138 177.497 72.3286C176.166 71.5193 174.431 71.941 173.621 73.2706L157.556 99.6381C156.746 100.968 157.168 102.702 158.499 103.511C159.83 104.32 161.565 103.899 162.375 102.569L178.44 76.2016Z" fill="#F9F9F9"/>
    <path d="M129.544 135.523C130.354 134.193 129.932 132.459 128.601 131.65C127.271 130.84 125.535 131.262 124.725 132.592L108.661 158.959C107.851 160.289 108.273 162.023 109.603 162.832C110.934 163.641 112.67 163.22 113.48 161.89L129.544 135.523Z" fill="#F9F9F9"/>
    <path d="M190.261 27.6173C191.071 26.2877 190.649 24.5538 189.318 23.7444C187.987 22.935 186.252 23.3568 185.442 24.6864L169.377 51.0539C168.567 52.3835 168.989 54.1175 170.32 54.9268C171.651 55.7362 173.387 55.3144 174.197 53.9848L190.261 27.6173Z" fill="#F9F9F9"/>
    <path d="M243.723 13.9279C244.534 12.5983 244.111 10.8643 242.781 10.0549C241.45 9.24559 239.714 9.66734 238.904 10.9969L222.84 37.3644C222.03 38.694 222.452 40.428 223.783 41.2374C225.113 42.0467 226.849 41.625 227.659 40.2954L243.723 13.9279Z" fill="#F9F9F9"/>
    <path d="M110.47 249.065C111.28 247.735 110.858 246.001 109.527 245.192C108.196 244.382 106.461 244.804 105.651 246.134L89.5864 272.501C88.7763 273.831 89.1985 275.565 90.5292 276.374C91.86 277.184 93.5955 276.762 94.4056 275.432L110.47 249.065Z" fill="#F9F9F9"/>
    <path d="M118.261 296.575C119.071 295.246 118.649 293.512 117.318 292.702C115.987 291.893 114.252 292.315 113.442 293.644L97.3774 320.012C96.5674 321.341 96.9895 323.075 98.3202 323.885C99.651 324.694 101.387 324.272 102.197 322.943L118.261 296.575Z" fill="#F9F9F9"/>
    <path d="M50.828 315.096C51.6381 313.767 51.2159 312.033 49.8852 311.223C48.5544 310.414 46.8189 310.836 46.0088 312.165L29.9443 338.533C29.1343 339.862 29.5564 341.596 30.8872 342.406C32.2179 343.215 33.9534 342.793 34.7635 341.464L50.828 315.096Z" fill="#F9F9F9"/>
    <path d="M22.3504 293.623C23.1605 292.293 22.7384 290.559 21.4076 289.75C20.0769 288.94 18.3414 289.362 17.5313 290.692L1.46679 317.059C0.656722 318.389 1.07884 320.123 2.40961 320.932C3.74038 321.741 5.47588 321.32 6.28595 319.99L22.3504 293.623Z" fill="#F9F9F9"/>
    <path d="M65.3353 83.9857C66.1454 82.6561 65.7233 80.9222 64.3925 80.1128C63.0617 79.3035 61.3262 79.7252 60.5162 81.0548L44.4517 107.422C43.6416 108.752 44.0637 110.486 45.3945 111.295C46.7253 112.105 48.4608 111.683 49.2708 110.353L65.3353 83.9857Z" fill="#F9F9F9"/>
    <path d="M31.2162 157.802C32.0262 156.472 31.6041 154.738 30.2733 153.929C28.9426 153.119 27.2071 153.541 26.397 154.871L10.3325 181.238C9.52245 182.568 9.94456 184.302 11.2753 185.111C12.6061 185.92 14.3416 185.499 15.1517 184.169L31.2162 157.802Z" fill="#F9F9F9"/>
    <path d="M95.6937 13.391C96.5038 12.0614 96.0817 10.3274 94.7509 9.51808C93.4201 8.70873 91.6846 9.13047 90.8746 10.4601L74.8101 36.8276C74 38.1572 74.4221 39.8911 75.7529 40.7005C77.0837 41.5098 78.8192 41.0881 79.6292 39.7585L95.6937 13.391Z" fill="#F9F9F9"/>
    <path d="M249.366 61.7068C250.176 60.3772 249.754 58.6432 248.423 57.8339C247.092 57.0245 245.356 57.4463 244.546 58.7759L228.482 85.1434C227.672 86.473 228.094 88.2069 229.425 89.0163C230.756 89.8256 232.491 89.4039 233.301 88.0743L249.366 61.7068Z" fill="#F9F9F9"/>
    <path d="M136.798 10.4384C137.608 9.10878 137.186 7.37481 135.855 6.56545C134.525 5.75609 132.789 6.17783 131.979 7.50744L115.915 33.8749C115.105 35.2045 115.527 36.9385 116.857 37.7479C118.188 38.5572 119.924 38.1355 120.734 36.8059L136.798 10.4384Z" fill="#F9F9F9"/>
    <path d="M72.3207 61.9753C73.1307 60.6456 72.7086 58.9117 71.3778 58.1023C70.0471 57.293 68.3116 57.7147 67.5015 59.0443L51.437 85.4118C50.6269 86.7414 51.0491 88.4754 52.3798 89.2847C53.7106 90.0941 55.4461 89.6723 56.2562 88.3427L72.3207 61.9753Z" fill="#F9F9F9"/>
    <path d="M67.4847 53.9226C68.2948 52.593 67.8727 50.8591 66.5419 50.0497C65.2111 49.2403 63.4756 49.6621 62.6656 50.9917L46.6011 77.3592C45.791 78.6888 46.2131 80.4228 47.5439 81.2321C48.8747 82.0415 50.6102 81.6197 51.4202 80.2901L67.4847 53.9226Z" fill="#F9F9F9"/>
    <path d="M31.2162 50.97C32.0262 49.6404 31.6041 47.9064 30.2733 47.0971C28.9426 46.2877 27.2071 46.7095 26.397 48.0391L10.3325 74.4065C9.52245 75.7361 9.94456 77.4701 11.2753 78.2795C12.6061 79.0888 14.3416 78.6671 15.1517 77.3375L31.2162 50.97Z" fill="#F9F9F9"/>
    <path d="M31.2162 10.4384C32.0262 9.10878 31.6041 7.37481 30.2733 6.56545C28.9426 5.75609 27.2071 6.17783 26.397 7.50744L10.3325 33.8749C9.52245 35.2045 9.94456 36.9385 11.2753 37.7479C12.6061 38.5572 14.3416 38.1355 15.1517 36.8059L31.2162 10.4384Z" fill="#F9F9F9"/>
  </g>
  <defs>
    <clipPath id="clip0_1596_7974">
      <rect width="360" height="408" fill="white"/>
    </clipPath>
  </defs>
</svg>
