<svg width="252" height="252" viewBox="0 0 252 252" fill="none"
  xmlns="http://www.w3.org/2000/svg">
  <circle cx="126" cy="126" r="126" fill="#43A1BF"/>
  <mask id="mask0_6_4" style="mask-type:alpha" maskUnits="userSpaceOnUse" x="0" y="0" width="252" height="252">
    <circle cx="126" cy="126" r="119.5" fill="white" stroke="#FEFEFE" stroke-width="13"/>
  </mask>
  <g mask="url(#mask0_6_4)">
    <path d="M226.442 118.629C224.948 122.327 220.787 124.133 217.148 122.663C213.51 121.192 211.772 117.003 213.266 113.305C214.76 109.606 224.454 104.584 228.152 95.4327C224.499 104.472 227.937 114.931 226.442 118.629Z" fill="white"/>
    <path d="M185.76 27.2205C184.265 30.9186 179.894 32.6394 175.995 31.064C172.097 29.4886 170.148 25.2136 171.642 21.5156C173.137 17.8175 183.301 12.985 186.999 3.83391C183.346 12.8734 187.254 23.5225 185.76 27.2205Z" fill="white"/>
    <path d="M125.497 40.8801C124.003 44.5781 119.631 46.2989 115.733 44.7235C111.834 43.1481 109.885 38.8732 111.38 35.1751C112.874 31.4771 123.039 26.6445 126.737 17.4935C123.084 26.5329 126.992 37.182 125.497 40.8801Z" fill="white"/>
    <path d="M177.392 76.6337C175.897 80.3317 171.736 82.1376 168.098 80.6673C164.459 79.1969 162.721 75.0071 164.216 71.309C165.71 67.611 175.404 62.5883 179.102 53.4372C175.449 62.4767 178.886 72.9356 177.392 76.6337Z" fill="white"/>
    <path d="M256.324 156.046C254.829 159.744 250.458 161.465 246.559 159.889C242.661 158.314 240.712 154.039 242.206 150.341C243.701 146.643 253.865 141.81 257.563 132.659C253.91 141.699 257.818 152.348 256.324 156.046Z" fill="white"/>
    <path d="M84.2966 232.242C82.8022 235.94 78.6411 237.746 75.0026 236.275C71.3641 234.805 69.626 230.615 71.1204 226.917C72.6148 223.219 82.3085 218.196 86.0065 209.045C82.3536 218.085 85.791 228.544 84.2966 232.242Z" fill="white"/>
    <path d="M28.1542 121.915C26.6598 125.613 22.288 127.334 18.3896 125.758C14.4912 124.183 12.5424 119.908 14.0368 116.21C15.5312 112.512 25.6955 107.679 29.3935 98.5284C25.7406 107.568 29.6486 118.217 28.1542 121.915Z" fill="white"/>
    <path d="M25.544 185.27C24.0495 188.968 19.6778 190.688 15.7794 189.113C11.881 187.538 9.93219 183.263 11.4266 179.565C12.921 175.867 23.0853 171.034 26.7833 161.883C23.1304 170.922 27.0384 181.572 25.544 185.27Z" fill="white"/>
    <path d="M7.35207 102.95C5.85766 106.648 1.48592 108.368 -2.41248 106.793C-6.31088 105.218 -8.2597 100.943 -6.76529 97.2447C-5.27087 93.5467 4.89338 88.7141 8.5914 79.563C4.93847 88.6025 8.84648 99.2516 7.35207 102.95Z" fill="white"/>
    <path d="M64.9276 185.346C63.4332 189.044 59.2721 190.85 55.6336 189.38C51.9951 187.91 50.257 183.72 51.7514 180.022C53.2458 176.324 62.9394 171.301 66.6375 162.15C62.9845 171.189 66.422 181.648 64.9276 185.346Z" fill="white"/>
    <path d="M216.543 176.927C215.049 180.625 210.888 182.431 207.249 180.96C203.611 179.49 201.873 175.3 203.367 171.602C204.862 167.904 214.555 162.881 218.253 153.73C214.6 162.77 218.038 173.229 216.543 176.927Z" fill="white"/>
    <path d="M164.039 257.075C162.545 260.773 158.173 262.494 154.274 260.918C150.376 259.343 148.427 255.068 149.922 251.37C151.416 247.672 161.58 242.839 165.278 233.688C161.625 242.728 165.533 253.377 164.039 257.075Z" fill="white"/>
    <path d="M71.5669 49.7073C70.0725 53.4054 65.7007 55.1262 61.8023 53.5508C57.9039 51.9754 55.9551 47.7005 57.4495 44.0024C58.944 40.3044 69.1082 35.4718 72.8062 26.3207C69.1533 35.3602 73.0613 46.0093 71.5669 49.7073Z" fill="white"/>
    <path d="M133 191.943C107.5 186.443 95 206.61 95 210.943" stroke="#FFF1F1" stroke-width="6" stroke-linecap="round" stroke-linejoin="round"/>
    <path d="M133 191.943C107.5 186.443 95 206.61 95 210.943" stroke="#FFF1F1" stroke-width="6" stroke-linecap="round" stroke-linejoin="round"/>
    <path d="M95 209.443L92 221.443" stroke="#FFF1F1" stroke-width="3"/>
    <path d="M95 209.443L92 221.443" stroke="#FFF1F1" stroke-width="3"/>
    <path fill-rule="evenodd" clip-rule="evenodd" d="M110.347 154.64C109.387 154.663 108.421 154.675 107.45 154.675C71.8552 154.675 43 138.918 43 110.129C43 81.3387 71.8552 58 107.45 58C135.744 58 159.78 72.7468 168.449 93.2562C170.913 97.6126 173.041 102.366 174.318 107.238L215.498 264.301L133.71 294C129.177 252.353 118.47 169.339 110.347 154.64Z" fill="#E3FFC0"/>
    <path d="M110.347 154.64L112.973 153.189L112.093 151.596L110.274 151.64L110.347 154.64ZM168.449 93.2562L165.686 94.4242L165.753 94.5831L165.838 94.7332L168.449 93.2562ZM174.318 107.238L171.416 107.999V107.999L174.318 107.238ZM215.498 264.301L216.522 267.121L219.094 266.187L218.4 263.54L215.498 264.301ZM133.71 294L130.728 294.325L131.141 298.125L134.734 296.82L133.71 294ZM110.274 151.64C109.338 151.663 108.397 151.675 107.45 151.675V157.675C108.445 157.675 109.435 157.663 110.42 157.639L110.274 151.64ZM107.45 151.675C90.0427 151.675 74.5466 147.814 63.5053 140.678C52.5605 133.605 46 123.352 46 110.129H40C40 125.694 47.8671 137.715 60.2485 145.717C72.5334 153.657 89.2622 157.675 107.45 157.675V151.675ZM46 110.129C46 83.5588 72.8861 61 107.45 61V55C70.8242 55 40 79.1186 40 110.129H46ZM107.45 61C134.807 61 157.582 75.2536 165.686 94.4242L171.212 92.0882C161.977 70.2401 136.68 55 107.45 55V61ZM177.22 106.478C175.86 101.29 173.614 96.2939 171.06 91.7791L165.838 94.7332C168.212 98.9312 170.221 103.442 171.416 107.999L177.22 106.478ZM218.4 263.54L177.22 106.478L171.416 107.999L212.596 265.062L218.4 263.54ZM134.734 296.82L216.522 267.121L214.474 261.481L132.686 291.18L134.734 296.82ZM107.721 156.09C108.565 157.617 109.546 160.25 110.614 163.968C111.666 167.632 112.751 172.167 113.852 177.379C116.052 187.801 118.284 200.795 120.409 214.669C124.659 242.41 128.464 273.53 130.728 294.325L136.693 293.675C134.423 272.823 130.607 241.613 126.34 213.76C124.207 199.838 121.956 186.719 119.722 176.14C118.606 170.852 117.487 166.165 116.381 162.312C115.29 158.514 114.16 155.337 112.973 153.189L107.721 156.09Z" fill="#826AC8"/>
    <circle cx="115.032" cy="88.3293" r="7.58233" fill="#2A3624"/>
    <path d="M190 158.5L183 141.5L195.5 128.5L208 135.5L214 153V211L165.5 223L120 192L138 176.5L165.5 168.5L190 158.5Z" fill="#A6FFEF"/>
    <path d="M117.5 192.5C106 204 99 230 92 253C89.3333 253 85.2 253.5 90 255.5C96 258 178.5 260 195.5 253C212.5 246 215.5 217 215.5 208C215.5 199 215 174.5 215.5 167C216 159.5 210.5 141 205 136.5C199.582 132.067 219.404 190.027 205 198.5C188 208.5 160 185.5 152 185.5C144 185.5 129 181 117.5 192.5Z" fill="#77D4E0"/>
    <path d="M184.5 140C197.5 123 206.735 133.143 210.81 145.641C214.886 158.139 220.184 215.631 203.882 213.965C190.842 212.631 157.034 210.633 133 191.873" stroke="#826AC8" stroke-width="5" stroke-linecap="round" stroke-linejoin="round"/>
    <path d="M98 232C110.797 182.796 143.299 171.663 156.5 170C169.701 168.337 212.5 158 196.5 139.5" stroke="#826AC8" stroke-width="5" stroke-linecap="round" stroke-linejoin="round"/>
  </g>
  <circle cx="126" cy="126" r="119.5" stroke="white" stroke-width="13"/>
</svg>
