<svg width="60" height="60" viewBox="0 0 60 60" fill="none"
  xmlns="http://www.w3.org/2000/svg">
  <g filter="url(#filter0_d_1639_1680)">
    <circle cx="30" cy="25" r="20" fill="white" fill-opacity="0.9"/>
    <mask id="mask0_1639_1680" style="mask-type:alpha" maskUnits="userSpaceOnUse" x="10" y="5" width="40" height="40">
      <circle cx="30" cy="25" r="19.1746" fill="white" stroke="#FEFEFE" stroke-width="1.65079"/>
    </mask>
    <g mask="url(#mask0_1639_1680)">
      <path fill-rule="evenodd" clip-rule="evenodd" d="M27.5154 29.5459C27.363 29.5496 27.2098 29.5514 27.0558 29.5514C21.4059 29.5514 16.8257 27.0504 16.8257 22.4806C16.8257 17.9108 21.4059 14.2062 27.0558 14.2062C31.5481 14.2062 35.3641 16.5482 36.7393 19.805C37.1298 20.4959 37.467 21.2495 37.6695 22.022L44.206 46.9525L31.2238 51.6667C30.5042 45.056 28.8046 31.8788 27.5154 29.5459Z" fill="white"/>
      <path d="M27.5154 29.5459L28.1718 29.1831L27.9518 28.785L27.4971 28.7961L27.5154 29.5459ZM36.7393 19.805L36.0484 20.0968L36.0652 20.1366L36.0864 20.1741L36.7393 19.805ZM37.6695 22.022L36.944 22.2122L36.944 22.2122L37.6695 22.022ZM44.206 46.9525L44.462 47.6575L45.105 47.424L44.9315 46.7623L44.206 46.9525ZM31.2238 51.6667L30.4782 51.7478L30.5816 52.6978L31.4798 52.3716L31.2238 51.6667ZM27.4971 28.7961C27.3509 28.7996 27.2038 28.8014 27.0558 28.8014V30.3014C27.2158 30.3014 27.3751 30.2995 27.5336 30.2956L27.4971 28.7961ZM27.0558 28.8014C24.3284 28.8014 21.925 28.1958 20.2291 27.0998C18.5574 26.0194 17.5757 24.4727 17.5757 22.4806H16.0757C16.0757 25.0583 17.384 27.047 19.4149 28.3596C21.4216 29.6565 24.1333 30.3014 27.0558 30.3014V28.8014ZM17.5757 22.4806C17.5757 18.4658 21.6636 14.9562 27.0558 14.9562V13.4562C21.1481 13.4562 16.0757 17.3558 16.0757 22.4806H17.5757ZM27.0558 14.9562C31.3139 14.9562 34.8146 17.1749 36.0484 20.0968L37.4302 19.5133C35.9137 15.9216 31.7823 13.4562 27.0558 13.4562V14.9562ZM38.395 21.8318C38.1719 20.9807 37.8051 20.1663 37.3922 19.4359L36.0864 20.1741C36.4546 20.8254 36.7621 21.5184 36.944 22.2122L38.395 21.8318ZM44.9315 46.7623L38.395 21.8318L36.944 22.2122L43.4805 47.1428L44.9315 46.7623ZM31.4798 52.3716L44.462 47.6575L43.95 46.2476L30.9678 50.9617L31.4798 52.3716ZM26.8589 29.9086C26.9771 30.1225 27.1261 30.5156 27.2945 31.102C27.459 31.6749 27.6298 32.3879 27.8037 33.2118C28.1514 34.8588 28.5048 36.9157 28.8419 39.1157C29.5158 43.5141 30.1192 48.4497 30.4782 51.7478L31.9694 51.5855C31.6088 48.273 31.0027 43.3147 30.3246 38.8885C29.9856 36.6764 29.6274 34.5883 29.2713 32.9019C29.0934 32.0591 28.9143 31.3081 28.7362 30.6881C28.5621 30.0815 28.3759 29.5524 28.1718 29.1831L26.8589 29.9086Z" fill="black"/>
      <circle cx="28.2592" cy="19.0206" r="1.20354" fill="black"/>
      <path d="M32.5 37.5C34 40.5 36.0417 42.5 36.875 43.125" stroke="black"/>
      <path d="M40.159 30.1588L39.0479 27.4604C39.0479 27.4604 39.3752 25.6252 41.032 25.3969C42.6887 25.1686 43.6411 26.5081 44.3752 28.75C45.1094 30.9919 43.9685 38.4921 43.9685 38.4921L36.2701 40.3969L29.0479 35.4763L31.905 33.0159L36.2701 31.7461L40.159 30.1588Z" fill="black"/>
      <path d="M28.651 35.5556C26.8256 37.381 25.7145 41.508 24.6034 45.1588C24.1801 45.1588 23.524 45.2382 24.2859 45.5556C25.2383 45.9525 38.3335 46.2699 41.032 45.1588C43.7304 44.0477 44.2066 39.4445 44.2066 38.016C44.2066 36.5874 45.6252 36.25 45.6252 33.125C45.6252 30 43.4129 27.381 42.5399 26.6667C41.6799 25.9632 44.8262 35.1631 42.5399 36.508C39.8415 38.0953 38.9983 34.9305 36.2502 34.375C33.5022 33.8195 30.4764 33.7302 28.651 35.5556Z" fill="white" stroke="black"/>
      <path d="M25.5557 41.8255C27.5869 34.0154 31.2501 32.5 34.8414 31.9842C38.4326 31.4684 43.1251 31.25 41.1906 27.1429" stroke="black" stroke-width="1.5" stroke-linecap="round" stroke-linejoin="round"/>
      <path d="M33.625 36.25C33.625 35.9739 33.4011 35.75 33.125 35.75C32.8489 35.75 32.625 35.9739 32.625 36.25H33.625ZM32.625 36.25C32.625 38.1656 32.9416 39.8407 33.72 41.0516C34.5213 42.2981 35.7791 43 37.5 43V42C36.0959 42 35.1662 41.4519 34.5612 40.5109C33.9334 39.5343 33.625 38.0844 33.625 36.25H32.625Z" fill="black"/>
    </g>
    <circle cx="30" cy="25" r="19.1746" stroke="white" stroke-width="1.65079"/>
  </g>
  <defs>
    <filter id="filter0_d_1639_1680" x="0" y="0" width="60" height="60" filterUnits="userSpaceOnUse" color-interpolation-filters="sRGB">
      <feFlood flood-opacity="0" result="BackgroundImageFix"/>
      <feColorMatrix in="SourceAlpha" type="matrix" values="0 0 0 0 0 0 0 0 0 0 0 0 0 0 0 0 0 0 127 0" result="hardAlpha"/>
      <feOffset dy="5"/>
      <feGaussianBlur stdDeviation="5"/>
      <feComposite in2="hardAlpha" operator="out"/>
      <feColorMatrix type="matrix" values="0 0 0 0 0 0 0 0 0 0 0 0 0 0 0 0 0 0 0.15 0"/>
      <feBlend mode="normal" in2="BackgroundImageFix" result="effect1_dropShadow_1639_1680"/>
      <feBlend mode="normal" in="SourceGraphic" in2="effect1_dropShadow_1639_1680" result="shape"/>
    </filter>
  </defs>
</svg>
