<svg width="4000" height="200"
  xmlns="http://www.w3.org/2000/svg">
  <style>
    .line {
      stroke-width: 6px;
      stroke-linecap:round;
      stroke-dasharray: 20px 200px;
      stroke-dashoffset: 220px;
      stroke: rgba(255,255,255,0.2);
      animation: draw 6s linear infinite;
    }
    .speed2 {
      stroke-dasharray: 40px 200px;
      stroke-dashoffset: 240px;
      stroke: rgba(255,255,255,0.5);
      animation: draw 3s linear infinite;
    }

    @keyframes draw {
      to {
        stroke-dashoffset: 0px;
      }
    }
  </style>

  <line class="line speed1" x1="3950" y1="-55" x2="3750" y2="345"/>
  <line class="line speed1" x1="1071" y1="-35" x2="871" y2="365"/>
  <line class="line speed1" x1="2509" y1="-165" x2="2309" y2="235"/>
  <line class="line speed1" x1="850" y1="-92" x2="650" y2="308"/>
  <line class="line speed1" x1="2595" y1="-26" x2="2395" y2="374"/>
  <line class="line speed1" x1="937" y1="-62" x2="737" y2="338"/>
  <line class="line speed1" x1="3177" y1="-97" x2="2977" y2="303"/>
  <line class="line speed1" x1="1989" y1="-68" x2="1789" y2="332"/>
  <line class="line speed1" x1="1508" y1="-160" x2="1308" y2="240"/>
  <line class="line speed1" x1="80" y1="-143" x2="-120" y2="257"/>
  <line class="line speed1" x1="965" y1="-100" x2="765" y2="300"/>
  <line class="line speed1" x1="2988" y1="-1" x2="2788" y2="399"/>
  <line class="line speed1" x1="449" y1="-69" x2="249" y2="331"/>
  <line class="line speed1" x1="2751" y1="-72" x2="2551" y2="328"/>
  <line class="line speed1" x1="3801" y1="-32" x2="3601" y2="368"/>
  <line class="line speed1" x1="1812" y1="-96" x2="1612" y2="304"/>
  <line class="line speed1" x1="3047" y1="-107" x2="2847" y2="293"/>
  <line class="line speed1" x1="3184" y1="-148" x2="2984" y2="252"/>
  <line class="line speed1" x1="2364" y1="-30" x2="2164" y2="370"/>
  <line class="line speed1" x1="568" y1="-43" x2="368" y2="357"/>
  <line class="line speed1" x1="110" y1="-175" x2="-90" y2="225"/>
  <line class="line speed1" x1="3315" y1="-17" x2="3115" y2="383"/>
  <line class="line speed1" x1="1316" y1="-28" x2="1116" y2="372"/>
  <line class="line speed1" x1="3939" y1="-152" x2="3739" y2="248"/>
  <line class="line speed1" x1="2998" y1="-76" x2="2798" y2="324"/>
  <line class="line speed1" x1="3414" y1="-39" x2="3214" y2="361"/>
  <line class="line speed1" x1="3092" y1="-132" x2="2892" y2="268"/>
  <line class="line speed1" x1="1914" y1="-77" x2="1714" y2="323"/>
  <line class="line speed1" x1="1271" y1="-88" x2="1071" y2="312"/>
  <line class="line speed1" x1="523" y1="-99" x2="323" y2="301"/>
  <line class="line speed1" x1="3880" y1="-3" x2="3680" y2="397"/>
  <line class="line speed1" x1="1825" y1="-171" x2="1625" y2="229"/>
  <line class="line speed1" x1="1451" y1="-107" x2="1251" y2="293"/>
  <line class="line speed1" x1="88" y1="-72" x2="-112" y2="328"/>
  <line class="line speed1" x1="2147" y1="-151" x2="1947" y2="249"/>
  <line class="line speed1" x1="1817" y1="-59" x2="1617" y2="341"/>
  <line class="line speed1" x1="143" y1="-94" x2="-57" y2="306"/>
  <line class="line speed1" x1="2064" y1="-184" x2="1864" y2="216"/>
  <line class="line speed1" x1="2509" y1="-182" x2="2309" y2="218"/>
  <line class="line speed1" x1="2947" y1="-194" x2="2747" y2="206"/>
  <line class="line speed1" x1="3607" y1="-140" x2="3407" y2="260"/>
  <line class="line speed1" x1="3843" y1="-94" x2="3643" y2="306"/>
  <line class="line speed1" x1="3142" y1="-88" x2="2942" y2="312"/>
  <line class="line speed1" x1="3855" y1="-15" x2="3655" y2="385"/>
  <line class="line speed1" x1="3744" y1="-172" x2="3544" y2="228"/>
  <line class="line speed1" x1="1087" y1="-126" x2="887" y2="274"/>
  <line class="line speed1" x1="774" y1="-4" x2="574" y2="396"/>
  <line class="line speed1" x1="707" y1="-14" x2="507" y2="386"/>
  <line class="line speed1" x1="3702" y1="-14" x2="3502" y2="386"/>
  <line class="line speed1" x1="1308" y1="-67" x2="1108" y2="333"/>
  <line class="line speed1" x1="384" y1="-186" x2="184" y2="214"/>
  <line class="line speed1" x1="1996" y1="-47" x2="1796" y2="353"/>
  <line class="line speed1" x1="725" y1="-164" x2="525" y2="236"/>
  <line class="line speed1" x1="1818" y1="-70" x2="1618" y2="330"/>
  <line class="line speed1" x1="761" y1="-87" x2="561" y2="313"/>
  <line class="line speed1" x1="3787" y1="-142" x2="3587" y2="258"/>
  <line class="line speed1" x1="1697" y1="-79" x2="1497" y2="321"/>
  <line class="line speed1" x1="1319" y1="-42" x2="1119" y2="358"/>
  <line class="line speed1" x1="3410" y1="-6" x2="3210" y2="394"/>
  <line class="line speed1" x1="3111" y1="-87" x2="2911" y2="313"/>
  <line class="line speed1" x1="3771" y1="-123" x2="3571" y2="277"/>
  <line class="line speed1" x1="3075" y1="-152" x2="2875" y2="248"/>
  <line class="line speed1" x1="377" y1="-31" x2="177" y2="369"/>
  <line class="line speed1" x1="3116" y1="-76" x2="2916" y2="324"/>
  <line class="line speed1" x1="1337" y1="-39" x2="1137" y2="361"/>
  <line class="line speed1" x1="1733" y1="-9" x2="1533" y2="391"/>
  <line class="line speed1" x1="139" y1="-105" x2="-61" y2="295"/>
  <line class="line speed1" x1="315" y1="-2" x2="115" y2="398"/>
  <line class="line speed1" x1="1398" y1="-35" x2="1198" y2="365"/>
  <line class="line speed1" x1="2109" y1="-193" x2="1909" y2="207"/>
  <line class="line speed1" x1="1870" y1="-175" x2="1670" y2="225"/>
  <line class="line speed1" x1="3284" y1="-142" x2="3084" y2="258"/>
  <line class="line speed1" x1="1435" y1="-192" x2="1235" y2="208"/>
  <line class="line speed1" x1="2870" y1="-99" x2="2670" y2="301"/>
  <line class="line speed1" x1="3856" y1="-106" x2="3656" y2="294"/>
  <line class="line speed1" x1="830" y1="-87" x2="630" y2="313"/>
  <line class="line speed1" x1="3573" y1="-59" x2="3373" y2="341"/>
  <line class="line speed1" x1="83" y1="-88" x2="-117" y2="312"/>
  <line class="line speed1" x1="3959" y1="-190" x2="3759" y2="210"/>
  <line class="line speed1" x1="857" y1="-138" x2="657" y2="262"/>
  <line class="line speed1" x1="1092" y1="-53" x2="892" y2="347"/>
  <line class="line speed1" x1="1389" y1="-154" x2="1189" y2="246"/>
  <line class="line speed1" x1="1683" y1="-154" x2="1483" y2="246"/>
  <line class="line speed1" x1="2586" y1="-19" x2="2386" y2="381"/>
  <line class="line speed1" x1="277" y1="-167" x2="77" y2="233"/>
  <line class="line speed1" x1="483" y1="-171" x2="283" y2="229"/>
  <line class="line speed1" x1="3845" y1="-63" x2="3645" y2="337"/>
  <line class="line speed1" x1="1121" y1="-86" x2="921" y2="314"/>
  <line class="line speed1" x1="2833" y1="-49" x2="2633" y2="351"/>
  <line class="line speed1" x1="2233" y1="-116" x2="2033" y2="284"/>
  <line class="line speed1" x1="2204" y1="-185" x2="2004" y2="215"/>
  <line class="line speed1" x1="702" y1="-30" x2="502" y2="370"/>
  <line class="line speed1" x1="3672" y1="-69" x2="3472" y2="331"/>
  <line class="line speed1" x1="3770" y1="-46" x2="3570" y2="354"/>
  <line class="line speed1" x1="1902" y1="-42" x2="1702" y2="358"/>
  <line class="line speed1" x1="3165" y1="-18" x2="2965" y2="382"/>
  <line class="line speed1" x1="91" y1="-174" x2="-109" y2="226"/>
  <line class="line speed1" x1="2521" y1="-7" x2="2321" y2="393"/>
  <line class="line speed1" x1="2920" y1="-53" x2="2720" y2="347"/>
  <line class="line speed1" x1="3998" y1="-126" x2="3798" y2="274"/>
  <line class="line speed2" x1="322" y1="-46" x2="122" y2="354"/>
  <line class="line speed2" x1="2365" y1="-16" x2="2165" y2="384"/>
  <line class="line speed2" x1="3869" y1="-187" x2="3669" y2="213"/>
  <line class="line speed2" x1="3701" y1="-139" x2="3501" y2="261"/>
  <line class="line speed2" x1="1272" y1="-25" x2="1072" y2="375"/>
  <line class="line speed2" x1="920" y1="-145" x2="720" y2="255"/>
  <line class="line speed2" x1="1178" y1="-33" x2="978" y2="367"/>
  <line class="line speed2" x1="435" y1="-163" x2="235" y2="237"/>
  <line class="line speed2" x1="3528" y1="-122" x2="3328" y2="278"/>
  <line class="line speed2" x1="2035" y1="-28" x2="1835" y2="372"/>
  <line class="line speed2" x1="2054" y1="-16" x2="1854" y2="384"/>
  <line class="line speed2" x1="41" y1="-127" x2="-159" y2="273"/>
  <line class="line speed2" x1="3179" y1="-157" x2="2979" y2="243"/>
  <line class="line speed2" x1="3592" y1="-71" x2="3392" y2="329"/>
  <line class="line speed2" x1="820" y1="-169" x2="620" y2="231"/>
  <line class="line speed2" x1="2364" y1="-124" x2="2164" y2="276"/>
  <line class="line speed2" x1="240" y1="-157" x2="40" y2="243"/>
  <line class="line speed2" x1="3895" y1="-161" x2="3695" y2="239"/>
  <line class="line speed2" x1="842" y1="-21" x2="642" y2="379"/>
  <line class="line speed2" x1="59" y1="-46" x2="-141" y2="354"/>
  <line class="line speed2" x1="3701" y1="-126" x2="3501" y2="274"/>
  <line class="line speed2" x1="3198" y1="-81" x2="2998" y2="319"/>
  <line class="line speed2" x1="1309" y1="-126" x2="1109" y2="274"/>
  <line class="line speed2" x1="253" y1="-95" x2="53" y2="305"/>
  <line class="line speed2" x1="1700" y1="-42" x2="1500" y2="358"/>
  <line class="line speed2" x1="1016" y1="-144" x2="816" y2="256"/>
  <line class="line speed2" x1="1404" y1="-186" x2="1204" y2="214"/>
  <line class="line speed2" x1="1714" y1="-175" x2="1514" y2="225"/>
  <line class="line speed2" x1="3729" y1="-92" x2="3529" y2="308"/>
  <line class="line speed2" x1="2188" y1="-55" x2="1988" y2="345"/>
  <line class="line speed2" x1="2884" y1="-125" x2="2684" y2="275"/>
  <line class="line speed2" x1="1647" y1="-180" x2="1447" y2="220"/>
  <line class="line speed2" x1="33" y1="-18" x2="-167" y2="382"/>
  <line class="line speed2" x1="3607" y1="-101" x2="3407" y2="299"/>
  <line class="line speed2" x1="39" y1="-97" x2="-161" y2="303"/>
  <line class="line speed2" x1="506" y1="-59" x2="306" y2="341"/>
  <line class="line speed2" x1="2533" y1="-145" x2="2333" y2="255"/>
  <line class="line speed2" x1="580" y1="-157" x2="380" y2="243"/>
  <line class="line speed2" x1="1739" y1="-147" x2="1539" y2="253"/>
  <line class="line speed2" x1="3094" y1="-108" x2="2894" y2="292"/>
  <line class="line speed2" x1="3497" y1="-82" x2="3297" y2="318"/>
  <line class="line speed2" x1="3370" y1="-93" x2="3170" y2="307"/>
  <line class="line speed2" x1="3986" y1="-49" x2="3786" y2="351"/>
  <line class="line speed2" x1="1527" y1="-140" x2="1327" y2="260"/>
  <line class="line speed2" x1="1880" y1="-188" x2="1680" y2="212"/>
  <line class="line speed2" x1="3988" y1="-30" x2="3788" y2="370"/>
  <line class="line speed2" x1="3007" y1="-30" x2="2807" y2="370"/>
  <line class="line speed2" x1="191" y1="-85" x2="-9" y2="315"/>
  <line class="line speed2" x1="2937" y1="-130" x2="2737" y2="270"/>
  <line class="line speed2" x1="397" y1="-76" x2="197" y2="324"/>
</svg>