<svg width="145" height="24" viewBox="0 0 145 24" fill="none"
  xmlns="http://www.w3.org/2000/svg">
  <path d="M6.46616 19.3468L6.77943 19.3169C7.10761 19.2672 7.44076 19.2224 7.77888 19.1826C8.12695 19.1329 8.48496 19.0733 8.85292 19.0037C9.73799 18.8545 10.4392 18.6954 10.9563 18.5262C11.6126 15.8114 11.9408 12.9671 11.9408 9.9936C11.9408 8.87981 11.8861 7.91517 11.7767 7.0997C9.07171 6.59251 5.64075 6.33892 1.48382 6.33892H1.08105L1.75233 2.72896H2.06559C5.84462 2.72896 9.13137 3.03227 11.9259 3.63891C12.4629 3.74829 12.8607 3.85272 13.1192 3.95216C13.3877 4.05162 13.6513 4.22068 13.9098 4.45935C14.1684 4.69803 14.4221 4.96157 14.6706 5.24996C15.2475 5.95604 15.5557 6.49306 15.5955 6.86102C15.675 7.59693 15.7148 8.42236 15.7148 9.33729C15.7148 10.2522 15.675 11.2169 15.5955 12.2312C15.5159 13.2456 15.3966 14.245 15.2375 15.2296C14.9093 17.3677 14.4667 19.118 13.9098 20.4804C13.7905 20.7887 13.6563 21.0125 13.5071 21.1518C13.3679 21.281 13.0794 21.4202 12.6419 21.5694C12.2044 21.7086 11.6623 21.8429 11.0159 21.9722C10.3794 22.1014 9.66839 22.2108 8.88275 22.3003C7.42087 22.4694 5.47169 22.6136 3.03521 22.7329V5.92295L6.46616 6.48099L6.76451 10.8588L6.46616 19.3468Z" fill="black"/>
  <path d="M19.0859 12.5296C19.0859 11.1969 19.2252 10.4262 19.5036 10.2174C19.7821 10.0086 20.0954 9.79975 20.4434 9.59086C20.7915 9.37209 21.1744 9.15827 21.5921 8.94943C22.0098 8.74059 22.4423 8.54169 22.8898 8.35274C23.3473 8.16379 23.7948 7.99473 24.2325 7.84555C25.1673 7.52732 25.8634 7.3682 26.3208 7.3682C26.7883 7.3682 27.1661 7.39307 27.4546 7.44279C27.7429 7.48257 28.0065 7.55218 28.2452 7.65163C28.7921 7.88036 29.1004 8.21351 29.17 8.65109C29.4982 10.7296 29.6623 13.2058 29.6623 16.0798V16.96L22.5169 17.0495V18.9887C23.2927 19.1777 24.2175 19.3517 25.2915 19.5108L27.8573 19.9285C28.5137 20.0279 29.185 20.1423 29.8712 20.2716L28.991 23.5385C26.2562 23.1108 23.3523 22.4197 20.2794 21.465C19.5733 21.2362 19.2103 20.8235 19.1904 20.2268L19.0859 12.5296ZM26.3059 13.7527C26.3059 12.8179 26.2114 11.8334 26.0225 10.7992C25.6247 10.7992 25.3065 10.819 25.0678 10.8588C24.8291 10.8986 24.5904 10.9533 24.3517 11.0229C24.1131 11.0925 23.8694 11.1721 23.6208 11.2616C23.034 11.4704 22.6462 11.6494 22.4573 11.7986V14.4837L26.3059 14.066V13.7527Z" fill="black"/>
  <path d="M33.5112 8.20357L36.6886 7.8008L37.2106 10.0682L39.8361 7.8008H43.5058C43.6947 7.8008 43.9582 7.94501 44.2964 8.2334C44.8632 8.70081 45.1466 9.1185 45.1466 9.48646L44.6245 22.4943L41.298 22.7628L41.2383 11.2467C41.119 11.2069 40.9549 11.187 40.746 11.187C40.5372 11.187 40.3433 11.1969 40.1643 11.2169C39.9952 11.2367 39.8112 11.2666 39.6123 11.3063C39.145 11.3859 38.7621 11.4804 38.4637 11.5898L37.3598 11.9925L36.9571 22.3451L33.7798 22.5837L33.5112 8.20357Z" fill="black"/>
  <path d="M52.5903 13.6335C52.5903 16.0302 52.7146 18.1086 52.9632 19.8689L55.9019 19.7197C56.4389 17.5914 56.7075 15.513 56.7075 13.4843C56.7075 12.6688 56.6527 11.9429 56.5433 11.3063C55.9467 11.008 53.8383 10.8588 50.2184 10.8588H49.4576C49.2488 10.8588 49.0201 10.8688 48.7715 10.8887L49.4129 7.42787C49.5819 7.41793 49.7361 7.40799 49.8753 7.39804C50.0245 7.37815 50.1736 7.3682 50.3228 7.3682L50.7703 7.33837C50.9195 7.33837 51.3372 7.33837 52.0234 7.33837C53.9925 7.33837 56.1505 7.60191 58.4975 8.12898C59.2433 8.31794 59.7008 8.65109 59.8698 9.12844C60.1284 9.86437 60.2577 11.0627 60.2577 12.7235C60.2577 15.7566 59.7952 18.6904 58.8704 21.5247C58.7908 21.7832 58.6964 22.002 58.587 22.181C58.4875 22.36 58.3085 22.4743 58.05 22.5241C57.7914 22.5837 57.4881 22.6385 57.14 22.6882C56.7919 22.7379 56.4488 22.7826 56.1107 22.8224C55.3748 22.892 54.8677 22.9268 54.5892 22.9268C54.3107 22.9268 54.0123 22.9218 53.6942 22.912C53.3759 22.912 53.0278 22.902 52.65 22.8821C51.6555 22.8324 50.9842 22.7429 50.6361 22.6136C50.288 22.4943 50.0494 22.2854 49.9201 21.987C49.8007 21.6887 49.6814 21.2114 49.5621 20.555C49.2836 19.0235 49.1444 17.2782 49.1444 15.3191C49.1444 14.5733 49.1046 11.2537 49.1444 10.5177L52.65 10.6967L52.5903 13.6335Z" fill="black"/>
  <path d="M70.998 11.9478C71.0577 10.6948 71.1522 9.50631 71.2815 8.38257C71.2815 8.38257 71.3759 7.55218 71.5649 5.8914C71.6345 5.35438 71.6942 4.80742 71.7439 4.25051C73.8821 3.65382 76.0898 3.28089 78.3671 3.13172L80.5302 12.0821L81.2312 19.1081L81.8727 19.0483L83.26 4.22068C84.6722 3.72343 86.3827 3.37039 88.3916 3.16156C89.0081 3.10188 89.5849 3.07205 90.1219 3.07205L92.0014 12.3804L93.3437 22.4346L89.4805 22.8374L88.302 12.7235L87.3175 6.26433L86.4075 6.38367L85.796 12.8727L84.3489 22.0318C82.6385 22.3501 80.7489 22.5341 78.6804 22.5837L75.5627 6.45825L74.5782 6.60743L74.4588 12.5892L73.5638 22.7478L69.8345 22.2854L70.998 11.9478Z" fill="black"/>
  <path d="M95.731 12.5296C95.731 11.1969 95.8703 10.4262 96.1491 10.2174C96.427 10.0086 96.7408 9.79975 97.0888 9.59086C97.4368 9.37209 97.819 9.15827 98.2371 8.94943C98.6543 8.74059 99.0873 8.54169 99.535 8.35274C99.9919 8.16379 100.44 7.99473 100.877 7.84555C101.812 7.52732 102.508 7.3682 102.966 7.3682C103.433 7.3682 103.812 7.39307 104.1 7.44279C104.388 7.48257 104.652 7.55218 104.89 7.65163C105.437 7.88036 105.745 8.21351 105.815 8.65109C106.143 10.7296 106.308 13.2058 106.308 16.0798V16.96L99.162 17.0495V18.9887C99.9374 19.1777 100.862 19.3517 101.937 19.5108L104.502 19.9285C105.158 20.0279 105.83 20.1423 106.516 20.2716L105.636 23.5385C102.901 23.1108 99.9974 22.4197 96.9245 21.465C96.2183 21.2362 95.8556 20.8235 95.8353 20.2268L95.731 12.5296ZM102.951 13.7527C102.951 12.8179 102.856 11.8334 102.668 10.7992C102.27 10.7992 101.952 10.819 101.712 10.8588C101.474 10.8986 101.235 10.9533 100.997 11.0229C100.758 11.0925 100.514 11.1721 100.266 11.2616C99.679 11.4704 99.2913 11.6494 99.102 11.7986V14.4837L102.951 14.066V13.7527Z" fill="black"/>
  <path d="M110.156 10.8887L110.126 8.12899L113.303 7.8008L113.825 10.0682L116.108 7.56213H117.883L118.628 11.0527C118.628 11.0527 117.848 11.2218 116.287 11.56C115.541 11.719 114.77 11.8931 113.974 12.0821L113.766 22.2854L110.395 22.5837L110.156 10.8887Z" fill="black"/>
  <path d="M121.568 21.7633C121.02 21.5843 120.702 21.1716 120.612 20.5252C120.414 19.1528 120.314 17.8998 120.314 16.766C120.314 15.6224 120.324 14.7771 120.344 14.2302C120.374 13.6732 120.414 13.1362 120.464 12.6191C120.643 10.461 120.886 9.19805 121.195 8.83009C121.353 8.63119 121.612 8.48202 121.97 8.38257C122.338 8.27319 122.826 8.16379 123.432 8.0544C124.049 7.93506 124.695 7.82567 125.372 7.72622C126.057 7.61682 126.728 7.51738 127.385 7.42787C128.051 7.33837 128.618 7.25881 129.085 7.1892L129.608 10.5456L128.459 10.665C126.331 10.8837 124.974 11.0677 124.387 11.2169C124.228 11.8334 124.118 12.6986 124.058 13.8125C123.999 14.9262 123.968 15.7417 123.968 16.2589C123.968 17.5418 124.018 18.5014 124.118 19.1379L129.816 20.197L128.936 23.4042C128.12 23.2749 127.355 23.1357 126.639 22.9866L124.834 22.6136C123.203 22.2556 122.114 21.9722 121.568 21.7633Z" fill="black"/>
  <path d="M140.139 14.1854C140.139 12.7633 140.08 11.724 139.96 11.0677H138.916C138.32 11.0677 137.857 11.1273 137.528 11.2467C137.001 11.4257 136.579 11.5898 136.261 11.739L136.037 22.2854L132.799 22.4645C132.77 18.6356 132.715 15.7417 132.636 13.7826C132.516 11.1473 132.457 8.86987 132.457 6.95052C132.457 5.6577 132.482 3.74333 132.532 1.2074L136.097 0.461538L136.261 9.90415L138.632 7.8008H141.944C142.312 7.8008 142.651 7.94003 142.959 8.21849C143.505 8.72567 143.789 9.17319 143.809 9.56105C143.828 9.94892 143.839 10.3417 143.839 10.7395V11.9031C143.839 13.2356 143.818 14.1904 143.779 14.7671L143.316 22.9866L140.005 23.5385L140.139 14.1854Z" fill="black"/>
</svg>
