<svg width="130" height="24" viewBox="0 0 130 24" fill="none"
  xmlns="http://www.w3.org/2000/svg">
  <path d="M5.4221 19.3468L5.70491 19.3168C6.00119 19.2672 6.30195 19.2224 6.6072 19.1826C6.92143 19.1329 7.24463 19.0732 7.57681 19.0036C8.37584 18.8545 9.00884 18.6953 9.47567 18.5262C10.0682 15.8114 10.3645 12.9671 10.3645 9.99359C10.3645 8.8798 10.3151 7.91516 10.2163 7.09968C7.77433 6.5925 4.67694 6.3389 0.924154 6.3389H0.560547L1.16656 2.72894H1.44936C4.86099 2.72894 7.8282 3.03226 10.351 3.63889C10.8358 3.74828 11.1949 3.85271 11.4283 3.95215C11.6708 4.0516 11.9087 4.22066 12.1421 4.45933C12.3755 4.69801 12.6045 4.96155 12.8289 5.24995C13.3497 5.95603 13.6279 6.49305 13.6638 6.861C13.7357 7.59692 13.7716 8.42234 13.7716 9.33728C13.7716 10.2521 13.7357 11.2168 13.6638 12.2312C13.592 13.2456 13.4843 14.245 13.3407 15.2296C13.0444 17.3677 12.6448 19.118 12.1421 20.4804C12.0343 20.7887 11.9132 21.0124 11.7785 21.1517C11.6528 21.281 11.3924 21.4202 10.9974 21.5693C10.6024 21.7086 10.1131 21.8428 9.5295 21.9722C8.95492 22.1014 8.313 22.2108 7.60375 22.3003C6.28399 22.4693 4.52431 22.6136 2.32471 22.7329V5.92294L5.4221 6.48097L5.69145 10.8588L5.4221 19.3468Z" fill="black"/>
  <path d="M16.8154 12.5296C16.8154 11.1969 16.9412 10.4262 17.1925 10.2173C17.4439 10.0085 17.7268 9.79974 18.0409 9.59085C18.3552 9.37208 18.7008 9.15826 19.0779 8.94943C19.455 8.74058 19.8455 8.54168 20.2495 8.35273C20.6625 8.16379 21.0665 7.99472 21.4616 7.84554C22.3055 7.52731 22.9339 7.36819 23.3469 7.36819C23.7689 7.36819 24.11 7.39306 24.3704 7.44278C24.6308 7.48256 24.8687 7.55217 25.0842 7.65163C25.5779 7.88035 25.8563 8.2135 25.9191 8.65108C26.2153 10.7296 26.3635 13.2058 26.3635 16.0798V16.96L19.9128 17.0495V18.9887C20.6132 19.1777 21.4481 19.3517 22.4177 19.5108L24.734 19.9285C25.3266 20.0279 25.9326 20.1423 26.5521 20.2716L25.7575 23.5385C23.2886 23.1108 20.667 22.4197 17.8928 21.4649C17.2554 21.2362 16.9277 20.8235 16.9098 20.2268L16.8154 12.5296ZM23.3334 13.7527C23.3334 12.8179 23.2482 11.8334 23.0776 10.7992C22.7185 10.7992 22.4312 10.819 22.2157 10.8588C22.0003 10.8986 21.7848 10.9533 21.5693 11.0229C21.3538 11.0925 21.1338 11.1721 20.9094 11.2616C20.3797 11.4704 20.0296 11.6494 19.859 11.7986V14.4837L23.3334 14.066V13.7527Z" fill="black"/>
  <path d="M29.8379 8.20358L32.7063 7.80081L33.1776 10.0682L35.5478 7.80081H38.8607C39.0313 7.80081 39.2692 7.94502 39.5745 8.23341C40.0862 8.70082 40.3421 9.1185 40.3421 9.48647L39.8707 22.4943L36.8676 22.7628L36.8137 11.2467C36.706 11.2069 36.5579 11.1871 36.3693 11.1871C36.1808 11.1871 36.0057 11.1969 35.8441 11.2169C35.6915 11.2367 35.5254 11.2666 35.3458 11.3063C34.9239 11.3859 34.5782 11.4804 34.3089 11.5898L33.3123 11.9925L32.9487 22.3451L30.0803 22.5837L29.8379 8.20358Z" fill="black"/>
  <path d="M47.0618 13.6335C47.0618 16.0302 47.174 18.1086 47.3984 19.8689L50.0514 19.7197C50.5363 17.5915 50.7787 15.5131 50.7787 13.4843C50.7787 12.6688 50.7293 11.9429 50.6305 11.3063C50.0918 11.008 48.1885 10.8588 44.9205 10.8588H44.2337C44.0452 10.8588 43.8387 10.8688 43.6143 10.8887L44.1933 7.42788C44.3459 7.41794 44.4851 7.408 44.6108 7.39805C44.7454 7.37816 44.8801 7.36821 45.0148 7.36821L45.4188 7.33838C45.5534 7.33838 45.9305 7.33838 46.55 7.33838C48.3277 7.33838 50.2758 7.60192 52.3947 8.12899C53.068 8.31795 53.481 8.6511 53.6336 9.12845C53.867 9.86438 53.9838 11.0627 53.9838 12.7235C53.9838 15.7567 53.5663 18.6904 52.7313 21.5247C52.6595 21.7832 52.5743 22.002 52.4755 22.181C52.3857 22.36 52.2241 22.4743 51.9907 22.5241C51.7573 22.5837 51.4834 22.6385 51.1692 22.6882C50.8549 22.7379 50.5452 22.7827 50.2399 22.8224C49.5756 22.892 49.1178 22.9268 48.8663 22.9268C48.6149 22.9268 48.3456 22.9219 48.0583 22.912C47.771 22.912 47.4568 22.902 47.1157 22.8821C46.2178 22.8324 45.6118 22.7429 45.2976 22.6136C44.9833 22.4943 44.7679 22.2854 44.6512 21.9871C44.5434 21.6887 44.4357 21.2114 44.328 20.555C44.0766 19.0235 43.9509 17.2783 43.9509 15.3191C43.9509 14.5733 43.915 11.2537 43.9509 10.5177L47.1157 10.6967L47.0618 13.6335Z" fill="black"/>
  <path d="M63.6803 11.9478C63.7342 10.6948 63.8195 9.50631 63.9362 8.38258C63.9362 8.38258 64.0215 7.55219 64.192 5.89141C64.2549 5.35439 64.3088 4.80743 64.3537 4.25052C66.284 3.65383 68.277 3.2809 70.333 3.13173L72.2857 12.0821L72.9186 19.1081L73.4977 19.0483L74.7501 4.22068C76.025 3.72344 77.5692 3.3704 79.3828 3.16156C79.9394 3.10189 80.4601 3.07205 80.945 3.07205L82.6417 12.3804L83.8535 22.4346L80.3659 22.8374L79.302 12.7235L78.4131 6.26434L77.5916 6.38367L77.0396 12.8727L75.7332 22.0318C74.1891 22.3501 72.4832 22.5341 70.6158 22.5837L67.8012 6.45826L66.9124 6.60744L66.8046 12.5892L65.9966 22.7479L62.6299 22.2854L63.6803 11.9478Z" fill="black"/>
  <path d="M86.0083 12.5296C86.0083 11.1969 86.1341 10.4262 86.3858 10.2173C86.6366 10.0085 86.92 9.79974 87.2341 9.59085C87.5483 9.37208 87.8933 9.15826 88.2708 8.94943C88.6475 8.74058 89.0383 8.54168 89.4425 8.35273C89.855 8.16379 90.2591 7.99472 90.6541 7.84554C91.4983 7.52731 92.1266 7.36819 92.54 7.36819C92.9616 7.36819 93.3033 7.39306 93.5633 7.44278C93.8233 7.48256 94.0616 7.55217 94.2766 7.65163C94.7708 7.88035 95.0491 8.2135 95.1116 8.65108C95.4083 10.7296 95.5566 13.2058 95.5566 16.0798V16.96L89.1058 17.0495V18.9887C89.8058 19.1777 90.6408 19.3517 91.6108 19.5108L93.9266 19.9285C94.5191 20.0279 95.1258 20.1423 95.745 20.2716L94.95 23.5385C92.4816 23.1108 89.86 22.4197 87.0858 21.4649C86.4483 21.2362 86.1208 20.8235 86.1025 20.2268L86.0083 12.5296ZM92.5266 13.7527C92.5266 12.8179 92.4408 11.8334 92.2708 10.7992C91.9116 10.7992 91.6241 10.819 91.4083 10.8588C91.1933 10.8986 90.9775 10.9533 90.7625 11.0229C90.5466 11.0925 90.3266 11.1721 90.1025 11.2616C89.5725 11.4704 89.2225 11.6494 89.0516 11.7986V14.4837L92.5266 14.066V13.7527Z" fill="black"/>
  <path d="M99.0311 10.8887L99.0044 8.12899L101.873 7.8008L102.344 10.0682L104.404 7.56213H106.007L106.68 11.0527C106.68 11.0527 105.975 11.2218 104.566 11.56C103.893 11.719 103.197 11.8931 102.479 12.0821L102.29 22.2854L99.2469 22.5837L99.0311 10.8887Z" fill="black"/>
  <path d="M109.333 21.7633C108.839 21.5843 108.552 21.1716 108.471 20.5252C108.292 19.1528 108.202 17.8998 108.202 16.766C108.202 15.6224 108.211 14.7771 108.229 14.2302C108.256 13.6732 108.292 13.1362 108.337 12.6191C108.498 10.4611 108.718 9.19806 108.997 8.8301C109.14 8.6312 109.373 8.48203 109.697 8.38258C110.029 8.2732 110.469 8.1638 111.017 8.05441C111.573 7.93506 112.157 7.82568 112.767 7.72623C113.387 7.61683 113.992 7.51739 114.585 7.42788C115.187 7.33838 115.698 7.25882 116.12 7.18921L116.592 10.5456L115.555 10.665C113.633 10.8837 112.408 11.0677 111.878 11.2169C111.735 11.8334 111.636 12.6986 111.582 13.8125C111.528 14.9263 111.501 15.7417 111.501 16.2589C111.501 17.5418 111.546 18.5014 111.636 19.1379L116.78 20.197L115.986 23.4043C115.249 23.2749 114.558 23.1357 113.912 22.9866L112.282 22.6136C110.81 22.2556 109.827 21.9722 109.333 21.7633Z" fill="black"/>
  <path d="M126.099 14.1854C126.099 12.7633 126.046 11.724 125.937 11.0677H124.995C124.457 11.0677 124.039 11.1273 123.742 11.2467C123.267 11.4257 122.885 11.5898 122.598 11.739L122.396 22.2854L119.473 22.4645C119.447 18.6356 119.397 15.7417 119.326 13.7827C119.217 11.1473 119.164 8.86988 119.164 6.95053C119.164 5.6577 119.187 3.74334 119.232 1.20741L122.45 0.461548L122.598 9.90416L124.739 7.80081H127.729C128.061 7.80081 128.367 7.94004 128.645 8.2185C129.138 8.72568 129.394 9.1732 129.412 9.56106C129.43 9.94893 129.439 10.3417 129.439 10.7395V11.9031C129.439 13.2356 129.421 14.1904 129.385 14.7671L128.967 22.9866L125.978 23.5385L126.099 14.1854Z" fill="black"/>
</svg>
